<?xml version="1.0" encoding="UTF-8" standalone="no"?>
<!-- Created with Inkscape (http://www.inkscape.org/) -->

<svg
   width="210mm"
   height="297mm"
   viewBox="0 0 210 297"
   version="1.1"
   id="svg5"
   xml:space="preserve"
   inkscape:version="1.2.2 (732a01da63, 2022-12-09)"
   sodipodi:docname="khamsa.svg"
   xmlns:inkscape="http://www.inkscape.org/namespaces/inkscape"
   xmlns:sodipodi="http://sodipodi.sourceforge.net/DTD/sodipodi-0.dtd"
   xmlns="http://www.w3.org/2000/svg"
   xmlns:svg="http://www.w3.org/2000/svg"><sodipodi:namedview
     id="namedview7"
     pagecolor="#ffffff"
     bordercolor="#000000"
     borderopacity="0.25"
     inkscape:showpageshadow="2"
     inkscape:pageopacity="0.0"
     inkscape:pagecheckerboard="0"
     inkscape:deskcolor="#d1d1d1"
     inkscape:document-units="mm"
     showgrid="false"
     inkscape:zoom="0.76791526"
     inkscape:cx="801.52073"
     inkscape:cy="593.81552"
     inkscape:window-width="1920"
     inkscape:window-height="1017"
     inkscape:window-x="892"
     inkscape:window-y="152"
     inkscape:window-maximized="1"
     inkscape:current-layer="layer1" /><defs
     id="defs2" /><g
     inkscape:label="Calque 1"
     inkscape:groupmode="layer"
     id="layer1"><path
       style="fill:#000000;stroke-width:0.264583"
       d="m 77.205597,137.38074 -0.34455,-48.236665 c 0.57093,-5.232262 3.01666,-8.96317 7.9246,-9.991881 6.08961,-1.276393 9.3476,4.547503 10.0747,4.859116 0,0 -0.71679,-13.28902 9.736783,-13.472804 9.31368,-0.163744 11.1978,13.092808 11.1978,13.092808 0,0 2.40595,-5.157839 9.64733,-4.823665 5.16141,0.238188 7.51419,6.480549 7.92459,10.336426 l 0.34455,49.959405 c 5.17635,-5.6032 8.31968,-9.50925 16.25285,-11.47099 8.62491,-0.4533 14.28979,6.19516 18.2019,12.16008 -5.85731,2.1789 -13.66367,4.57713 -17.57192,12.74826 -6.10578,12.40371 -5.97651,24.80743 -7.9246,37.21114 -1.28688,6.20186 -4.46242,12.40371 -9.64733,18.60557 -4.99175,5.82874 -15.97175,10.95004 -29.18921,11.04642 -11.116983,-0.11104 -19.813403,-3.07656 -26.714683,-8.49545 -5.21287,-4.09316 -9.40382,-8.58207 -12.03826,-18.0138 -2.44197,-8.74265 -1.51979,-24.03044 -7.78188,-38.70757 -4.02083,-9.42406 -6.44813,-11.50944 -17.49803,-15.77275 5.93527,-7.10642 7.48042,-10.56863 15.23861,-11.02807 8.80056,-0.52117 14.61541,7.7056 22.16675,9.99442 z"
       id="path285"
       sodipodi:nodetypes="ccscscsccccccccssscsc" /><path
       style="fill:#000000;stroke-width:0.264583"
       d="M 47.264592,124.25228 70.165991,137.4084"
       id="path352" /><circle
       id="path403"
       style="fill:#000000;stroke:#000000;stroke-width:0.264583"
       cx="35.570259"
       cy="137.4084"
       r="0.064903073" /></g></svg>
